# xmcd
#
# Track frame offsets: 
#        150
#        26339
#        52147
#        80013
#        106675
#        128706
#        150899
#        174427
#
# Disc length: 2616 seconds
#
# Revision: 0
# Processed by: cddbd v1.5.1PL2 Copyright (c) Steve Scherf et al.
# Submitted via: ExactAudioCopy v0.95b4
#
DISCID=540a3608
DTITLE=Imam Anwar Al-Awlaki - The Life of Muhammad - Makkan Period - C
DTITLE=D 07 of 16
DYEAR=2003
DGENRE=Speech
TTITLE0=The Glad Tidings Track 01
TTITLE1=The Glad Tidings Track 02
TTITLE2=The Glad Tidings Track 03
TTITLE3=The Glad Tidings Track 04
TTITLE4=The Glad Tidings Track 05
TTITLE5=The Glad Tidings Track 06
TTITLE6=The Glad Tidings Track 07
TTITLE7=The Glad Tidings Track 08
EXTD=
EXTT0=
EXTT1=
EXTT2=
EXTT3=
EXTT4=
EXTT5=
EXTT6=
EXTT7=
PLAYORDER=
